<?xml version="1.0" encoding="utf-8"?>
<!-- Generator: Adobe Illustrator 15.1.0, SVG Export Plug-In . SVG Version: 6.00 Build 0)  -->
<!DOCTYPE svg PUBLIC "-//W3C//DTD SVG 1.1//EN" "http://www.w3.org/Graphics/SVG/1.1/DTD/svg11.dtd">
<svg version="1.1" id="Layer_1" xmlns="http://www.w3.org/2000/svg" xmlns:xlink="http://www.w3.org/1999/xlink" x="0px" y="0px"
	 width="171px" height="78px" viewBox="0 0 171 78" enable-background="new 0 0 171 78" xml:space="preserve">
<g>
	<path fill="#444B51" d="M26.872,48.967c-2.354,3.451-5.865,5.179-10.533,5.179c-4.238,0-7.691-1.472-10.358-4.414
		c-2.589-2.903-3.884-6.492-3.884-10.771c0-4.275,1.295-7.865,3.884-10.77c2.667-2.942,6.218-4.414,10.651-4.414
		s7.847,1.748,10.24,5.238v-4.767h4.414v29.425h-4.414V48.967z M16.926,50.143c3.179,0,5.688-1.098,7.534-3.295
		c1.765-2.078,2.647-4.709,2.647-7.887c0-3.177-0.883-5.806-2.647-7.886c-1.846-2.197-4.355-3.294-7.534-3.294
		c-3.139,0-5.688,1.097-7.649,3.294c-1.846,2.08-2.767,4.709-2.767,7.886c0,3.178,0.921,5.809,2.767,7.887
		C11.237,49.045,13.787,50.143,16.926,50.143z"/>
	<path fill="#8BC33F" d="M44.462,54.464h-6.174V13.27h6.174V54.464z"/>
	<path fill="#444B51" d="M79.02,24.249L67.544,53.674h-5.179L50.83,24.249h4.826l9.298,24.718l9.239-24.718H79.02z"/>
	<path fill="#444B51" d="M95.91,50.143c3.962,0,6.806-1.647,8.532-4.943h4.826c-1.021,2.668-2.639,4.826-4.854,6.473
		c-2.218,1.648-5.071,2.474-8.563,2.474c-4.434,0-8.043-1.472-10.828-4.414c-2.707-2.863-4.061-6.453-4.061-10.771
		c0-4.354,1.295-7.945,3.885-10.77c2.745-2.942,6.315-4.414,10.711-4.414c4.393,0,7.963,1.472,10.71,4.414
		c2.589,2.824,3.884,6.416,3.884,10.77v1.766H85.493c0.313,2.708,1.393,4.944,3.237,6.709C90.614,49.24,93.007,50.143,95.91,50.143z
		 M95.558,27.781c-2.709,0-4.984,0.844-6.827,2.529c-1.727,1.608-2.786,3.707-3.179,6.299h20.01
		c-0.393-2.592-1.452-4.69-3.178-6.299C100.539,28.625,98.264,27.781,95.558,27.781z"/>
	<path fill="#444B51" d="M127.452,38.49l11.417,15.184h-5.65l-8.297-12.004l-8.356,12.004h-5.591l11.358-15.184l-10.652-14.241
		h5.649l7.592,11.123l7.532-11.123h5.65L127.452,38.49z"/>
	<path fill="#444B51" d="M154.405,23.777c4.395,0,7.965,1.472,10.712,4.414c2.59,2.824,3.883,6.416,3.883,10.77
		c0,4.355-1.293,7.946-3.883,10.771c-2.747,2.942-6.317,4.414-10.712,4.414c-4.394,0-7.965-1.472-10.711-4.414
		c-2.589-2.824-3.883-6.415-3.883-10.771c0-4.354,1.294-7.945,3.883-10.77C146.44,25.249,150.012,23.777,154.405,23.777z
		 M154.405,50.143c3.178,0,5.688-1.098,7.532-3.295c1.768-2.078,2.65-4.709,2.65-7.887c0-3.177-0.883-5.806-2.65-7.886
		c-1.844-2.197-4.354-3.294-7.532-3.294c-3.177,0-5.689,1.097-7.533,3.294c-1.766,2.08-2.646,4.709-2.646,7.886
		c0,3.178,0.881,5.809,2.646,7.887C148.716,49.045,151.229,50.143,154.405,50.143z"/>
	
		<line fill="#8BC33F" stroke="#8BC33F" stroke-width="0.75" stroke-miterlimit="10" x1="41.376" y1="61.37" x2="41.376" y2="-0.281"/>
</g>
<g>
	<path fill="#6E6F71" d="M11.184,77.82V67.336H7.457v-0.891h8.5v0.891h-3.719V77.82H11.184z"/>
	<path fill="#6E6F71" d="M17.27,77.82h-0.969v-6.156l-0.078-1.859h1.016l0.031,1.938c0.084-0.375,0.205-0.697,0.363-0.965
		c0.158-0.269,0.34-0.488,0.543-0.66s0.432-0.299,0.688-0.379c0.256-0.081,0.531-0.124,0.828-0.129c0.15,0,0.283,0.004,0.395,0.012
		s0.205,0.021,0.277,0.043l0.008,0.891c-0.047-0.021-0.131-0.041-0.254-0.059c-0.123-0.019-0.283-0.027-0.48-0.027
		c-0.344,0-0.658,0.066-0.945,0.199s-0.533,0.324-0.738,0.574s-0.369,0.552-0.492,0.906c-0.123,0.354-0.186,0.75-0.191,1.188V77.82z
		"/>
	<path fill="#6E6F71" d="M25.238,69.609c0.375,0,0.713,0.04,1.012,0.121c0.299,0.08,0.572,0.195,0.82,0.344s0.475,0.329,0.68,0.543
		c0.205,0.213,0.402,0.455,0.59,0.727l0.039-1.539h0.938v1.906v6.109h-0.984l0.016-1.711c-0.072,0.213-0.201,0.431-0.383,0.652
		c-0.182,0.221-0.408,0.424-0.68,0.609c-0.271,0.185-0.582,0.336-0.934,0.453S25.621,78,25.215,78c-0.662,0-1.23-0.129-1.707-0.387
		s-0.869-0.592-1.176-1c-0.307-0.409-0.533-0.867-0.68-1.375s-0.219-1.012-0.219-1.512c0-0.516,0.078-1.021,0.234-1.516
		c0.156-0.495,0.393-0.936,0.711-1.32c0.318-0.386,0.713-0.695,1.188-0.93S24.598,69.609,25.238,69.609z M28.371,73.719
		c-0.031-0.422-0.104-0.832-0.215-1.23s-0.285-0.754-0.52-1.066s-0.541-0.563-0.918-0.75s-0.848-0.281-1.41-0.281
		c-0.525,0-0.975,0.102-1.348,0.305s-0.678,0.467-0.918,0.793c-0.24,0.325-0.414,0.688-0.523,1.09
		c-0.109,0.4-0.164,0.799-0.164,1.195c0,0.396,0.041,0.798,0.125,1.207c0.084,0.408,0.236,0.779,0.457,1.113
		c0.221,0.333,0.529,0.606,0.922,0.82c0.393,0.213,0.9,0.32,1.52,0.32c0.416,0,0.807-0.068,1.172-0.203
		c0.365-0.136,0.682-0.342,0.949-0.617c0.268-0.276,0.48-0.623,0.637-1.039c0.156-0.417,0.234-0.904,0.234-1.461V73.719z"/>
	<path fill="#6E6F71" d="M37.777,66.039h0.969v9.852c0,0.344,0.002,0.665,0.004,0.965c0.002,0.299,0.012,0.621,0.027,0.965h-0.961
		l-0.047-1.609c-0.354,0.625-0.787,1.079-1.297,1.363C35.963,77.857,35.377,78,34.715,78c-0.609,0-1.137-0.108-1.582-0.324
		c-0.445-0.217-0.813-0.51-1.102-0.879c-0.289-0.37-0.504-0.805-0.645-1.305s-0.211-1.037-0.211-1.609
		c0-0.568,0.076-1.109,0.227-1.625s0.379-0.971,0.684-1.363c0.305-0.394,0.684-0.706,1.137-0.938
		c0.453-0.232,0.982-0.348,1.586-0.348c0.693,0,1.293,0.146,1.801,0.438c0.508,0.291,0.896,0.744,1.168,1.359V66.039z
		 M34.941,77.234c0.479,0,0.896-0.09,1.254-0.27s0.652-0.429,0.887-0.746c0.234-0.318,0.408-0.695,0.523-1.133
		s0.172-0.914,0.172-1.43c0-0.5-0.064-0.951-0.195-1.352c-0.131-0.401-0.314-0.744-0.555-1.027c-0.24-0.284-0.529-0.503-0.871-0.656
		c-0.342-0.154-0.725-0.23-1.152-0.23c-0.494,0-0.92,0.094-1.273,0.281s-0.646,0.439-0.875,0.758
		c-0.229,0.317-0.398,0.686-0.508,1.105c-0.109,0.419-0.164,0.86-0.164,1.324c0,0.442,0.049,0.867,0.145,1.273
		s0.254,0.766,0.473,1.078s0.502,0.561,0.852,0.746C34.002,77.142,34.432,77.234,34.941,77.234z"/>
	<path fill="#6E6F71" d="M47.809,76.242l0.281,0.75c-0.391,0.359-0.846,0.617-1.363,0.773S45.623,78,44.973,78
		c-0.619,0-1.174-0.104-1.66-0.309c-0.486-0.206-0.898-0.492-1.234-0.859s-0.592-0.805-0.77-1.313s-0.266-1.064-0.266-1.668
		c0-0.578,0.088-1.125,0.266-1.641s0.432-0.967,0.766-1.352c0.334-0.386,0.74-0.69,1.223-0.914c0.482-0.225,1.027-0.336,1.637-0.336
		c0.604,0,1.129,0.102,1.574,0.305s0.813,0.485,1.102,0.848c0.289,0.361,0.504,0.795,0.645,1.301
		c0.141,0.505,0.211,1.063,0.211,1.672c0,0.041-0.002,0.087-0.004,0.137c-0.002,0.049-0.004,0.087-0.004,0.113h-6.391v0.148
		c0,0.463,0.068,0.885,0.207,1.266c0.139,0.38,0.338,0.705,0.598,0.977c0.26,0.271,0.576,0.481,0.945,0.633
		c0.369,0.15,0.789,0.227,1.258,0.227c0.584,0,1.107-0.086,1.57-0.258S47.496,76.56,47.809,76.242z M42.082,73.188h5.367v-0.016
		v0.055c-0.016-0.422-0.074-0.807-0.176-1.152c-0.102-0.347-0.254-0.645-0.457-0.895s-0.463-0.444-0.777-0.582
		c-0.314-0.139-0.693-0.207-1.137-0.207c-0.432,0-0.814,0.074-1.148,0.223s-0.617,0.35-0.852,0.605
		c-0.234,0.255-0.42,0.552-0.559,0.891C42.205,72.447,42.119,72.807,42.082,73.188z"/>
	<path fill="#6E6F71" d="M57.973,77.82V67.336h-3.727v-0.891h8.5v0.891h-3.719V77.82H57.973z"/>
	<path fill="#6E6F71" d="M65.449,66.039v5.336c0.344-0.615,0.756-1.063,1.238-1.344s1.064-0.422,1.746-0.422
		c0.521,0,0.955,0.082,1.305,0.246s0.631,0.381,0.844,0.652c0.213,0.271,0.371,0.578,0.473,0.922s0.166,0.695,0.191,1.055
		l0.016,0.344v4.992h-0.969V73.68c0-0.193-0.002-0.405-0.008-0.637c-0.006-0.232-0.008-0.351-0.008-0.355
		c-0.037-0.74-0.236-1.308-0.598-1.703c-0.361-0.396-0.902-0.594-1.621-0.594c-0.432,0-0.811,0.072-1.137,0.219
		c-0.326,0.146-0.598,0.346-0.816,0.602c-0.219,0.255-0.385,0.556-0.496,0.902c-0.111,0.346-0.166,0.717-0.16,1.113v4.594H64.48
		V66.039H65.449z"/>
	<path fill="#6E6F71" d="M80.332,76.242l0.281,0.75c-0.391,0.359-0.846,0.617-1.363,0.773S78.146,78,77.496,78
		c-0.619,0-1.174-0.104-1.66-0.309c-0.486-0.206-0.898-0.492-1.234-0.859s-0.592-0.805-0.77-1.313s-0.266-1.064-0.266-1.668
		c0-0.578,0.088-1.125,0.266-1.641s0.432-0.967,0.766-1.352c0.334-0.386,0.74-0.69,1.223-0.914c0.482-0.225,1.027-0.336,1.637-0.336
		c0.604,0,1.129,0.102,1.574,0.305s0.813,0.485,1.102,0.848c0.289,0.361,0.504,0.795,0.645,1.301
		c0.141,0.505,0.211,1.063,0.211,1.672c0,0.041-0.002,0.087-0.004,0.137c-0.002,0.049-0.004,0.087-0.004,0.113H74.59v0.148
		c0,0.463,0.068,0.885,0.207,1.266c0.139,0.38,0.338,0.705,0.598,0.977c0.26,0.271,0.576,0.481,0.945,0.633
		c0.369,0.15,0.789,0.227,1.258,0.227c0.584,0,1.107-0.086,1.57-0.258S80.02,76.56,80.332,76.242z M74.605,73.188h5.367v-0.016
		v0.055c-0.016-0.422-0.074-0.807-0.176-1.152c-0.102-0.347-0.254-0.645-0.457-0.895s-0.463-0.444-0.777-0.582
		c-0.314-0.139-0.693-0.207-1.137-0.207c-0.432,0-0.814,0.074-1.148,0.223s-0.617,0.35-0.852,0.605
		c-0.234,0.255-0.42,0.552-0.559,0.891C74.729,72.447,74.643,72.807,74.605,73.188z"/>
	<path fill="#6E6F71" d="M88.051,66.445h2.336c0.713,0,1.385,0.032,2.016,0.098c0.631,0.064,1.211,0.178,1.742,0.34
		c0.531,0.161,1.008,0.38,1.43,0.656c0.422,0.275,0.779,0.625,1.074,1.047s0.52,0.927,0.676,1.516
		c0.156,0.588,0.234,1.273,0.234,2.055c0,0.859-0.145,1.638-0.434,2.336c-0.289,0.697-0.709,1.293-1.258,1.785
		s-1.221,0.872-2.012,1.141c-0.791,0.268-1.688,0.402-2.688,0.402h-3.164L88.051,66.445z M89.051,76.93h2.266
		c0.881,0,1.645-0.117,2.293-0.352s1.186-0.561,1.609-0.977c0.424-0.417,0.74-0.914,0.945-1.492s0.309-1.211,0.309-1.898
		c0-0.906-0.127-1.67-0.383-2.289c-0.256-0.62-0.633-1.121-1.133-1.504s-1.121-0.659-1.863-0.828
		c-0.742-0.17-1.598-0.254-2.566-0.254h-1.477V76.93z"/>
	<path fill="#6E6F71" d="M99.941,69.805h0.969v8.016h-0.969V69.805z M100.895,66.273v0.969h-0.898v-0.969H100.895z"/>
	<path fill="#6E6F71" d="M105.48,77.82h-0.969v-7.375h-1.617v-0.641h1.617v-1.281c-0.01-0.422,0.027-0.799,0.113-1.129
		c0.086-0.331,0.221-0.612,0.402-0.844c0.182-0.232,0.416-0.408,0.699-0.527c0.283-0.12,0.623-0.18,1.02-0.18
		c0.115,0,0.213,0.004,0.297,0.012s0.158,0.017,0.227,0.027c0.068,0.01,0.131,0.024,0.191,0.043
		c0.061,0.018,0.129,0.037,0.207,0.059l-0.008,0.75c-0.063-0.021-0.15-0.039-0.262-0.055s-0.262-0.023-0.449-0.023
		c-0.313,0-0.568,0.04-0.766,0.121c-0.197,0.08-0.352,0.201-0.461,0.363c-0.109,0.161-0.178,0.359-0.207,0.594
		s-0.041,0.505-0.035,0.813v1.258h1.992v0.641h-1.992V77.82z"/>
	<path fill="#6E6F71" d="M110.965,77.82h-0.969v-7.375h-1.617v-0.641h1.617v-1.281c-0.01-0.422,0.027-0.799,0.113-1.129
		c0.086-0.331,0.221-0.612,0.402-0.844c0.182-0.232,0.416-0.408,0.699-0.527c0.283-0.12,0.623-0.18,1.02-0.18
		c0.115,0,0.213,0.004,0.297,0.012s0.158,0.017,0.227,0.027c0.068,0.01,0.131,0.024,0.191,0.043
		c0.061,0.018,0.129,0.037,0.207,0.059l-0.008,0.75c-0.063-0.021-0.15-0.039-0.262-0.055s-0.262-0.023-0.449-0.023
		c-0.313,0-0.568,0.04-0.766,0.121c-0.197,0.08-0.352,0.201-0.461,0.363c-0.109,0.161-0.178,0.359-0.207,0.594
		s-0.041,0.505-0.035,0.813v1.258h1.992v0.641h-1.992V77.82z"/>
	<path fill="#6E6F71" d="M121.152,76.242l0.281,0.75c-0.391,0.359-0.846,0.617-1.363,0.773S118.967,78,118.316,78
		c-0.619,0-1.174-0.104-1.66-0.309c-0.486-0.206-0.898-0.492-1.234-0.859s-0.592-0.805-0.77-1.313s-0.266-1.064-0.266-1.668
		c0-0.578,0.088-1.125,0.266-1.641s0.432-0.967,0.766-1.352c0.334-0.386,0.74-0.69,1.223-0.914c0.482-0.225,1.027-0.336,1.637-0.336
		c0.604,0,1.129,0.102,1.574,0.305s0.813,0.485,1.102,0.848c0.289,0.361,0.504,0.795,0.645,1.301
		c0.141,0.505,0.211,1.063,0.211,1.672c0,0.041-0.002,0.087-0.004,0.137c-0.002,0.049-0.004,0.087-0.004,0.113h-6.391v0.148
		c0,0.463,0.068,0.885,0.207,1.266c0.139,0.38,0.338,0.705,0.598,0.977c0.26,0.271,0.576,0.481,0.945,0.633
		c0.369,0.15,0.789,0.227,1.258,0.227c0.584,0,1.107-0.086,1.57-0.258S120.84,76.56,121.152,76.242z M115.426,73.188h5.367v-0.016
		v0.055c-0.016-0.422-0.074-0.807-0.176-1.152c-0.102-0.347-0.254-0.645-0.457-0.895s-0.463-0.444-0.777-0.582
		c-0.314-0.139-0.693-0.207-1.137-0.207c-0.432,0-0.814,0.074-1.148,0.223s-0.617,0.35-0.852,0.605
		c-0.234,0.255-0.42,0.552-0.559,0.891C115.549,72.447,115.463,72.807,115.426,73.188z"/>
	<path fill="#6E6F71" d="M124.941,77.82h-0.969v-6.156l-0.078-1.859h1.016l0.031,1.938c0.084-0.375,0.205-0.697,0.363-0.965
		c0.158-0.269,0.34-0.488,0.543-0.66s0.432-0.299,0.688-0.379c0.256-0.081,0.531-0.124,0.828-0.129c0.15,0,0.283,0.004,0.395,0.012
		s0.205,0.021,0.277,0.043l0.008,0.891c-0.047-0.021-0.131-0.041-0.254-0.059c-0.123-0.019-0.283-0.027-0.48-0.027
		c-0.344,0-0.658,0.066-0.945,0.199s-0.533,0.324-0.738,0.574s-0.369,0.552-0.492,0.906c-0.123,0.354-0.186,0.75-0.191,1.188V77.82z
		"/>
	<path fill="#6E6F71" d="M135.863,76.242l0.281,0.75c-0.391,0.359-0.846,0.617-1.363,0.773S133.678,78,133.027,78
		c-0.619,0-1.174-0.104-1.66-0.309c-0.486-0.206-0.898-0.492-1.234-0.859s-0.592-0.805-0.77-1.313s-0.266-1.064-0.266-1.668
		c0-0.578,0.088-1.125,0.266-1.641s0.432-0.967,0.766-1.352c0.334-0.386,0.74-0.69,1.223-0.914c0.482-0.225,1.027-0.336,1.637-0.336
		c0.604,0,1.129,0.102,1.574,0.305s0.813,0.485,1.102,0.848c0.289,0.361,0.504,0.795,0.645,1.301
		c0.141,0.505,0.211,1.063,0.211,1.672c0,0.041-0.002,0.087-0.004,0.137c-0.002,0.049-0.004,0.087-0.004,0.113h-6.391v0.148
		c0,0.463,0.068,0.885,0.207,1.266c0.139,0.38,0.338,0.705,0.598,0.977c0.26,0.271,0.576,0.481,0.945,0.633
		c0.369,0.15,0.789,0.227,1.258,0.227c0.584,0,1.107-0.086,1.57-0.258S135.551,76.56,135.863,76.242z M130.137,73.188h5.367v-0.016
		v0.055c-0.016-0.422-0.074-0.807-0.176-1.152c-0.102-0.347-0.254-0.645-0.457-0.895s-0.463-0.444-0.777-0.582
		c-0.314-0.139-0.693-0.207-1.137-0.207c-0.432,0-0.814,0.074-1.148,0.223s-0.617,0.35-0.852,0.605
		c-0.234,0.255-0.42,0.552-0.559,0.891C130.26,72.447,130.174,72.807,130.137,73.188z"/>
	<path fill="#6E6F71" d="M139.637,77.82h-0.969v-6.156l-0.07-1.859h1.016l0.047,1.57c0.631-1.178,1.619-1.766,2.969-1.766
		c0.391,0,0.732,0.047,1.027,0.141s0.547,0.223,0.758,0.387s0.385,0.355,0.52,0.574s0.24,0.454,0.313,0.707
		c0.072,0.252,0.125,0.516,0.156,0.789s0.047,0.545,0.047,0.816c0.006,0.141,0.008,0.402,0.008,0.785s0,0.853,0,1.41v2.602h-0.969
		v-4.234c0-0.281-0.002-0.503-0.004-0.664c-0.002-0.162-0.006-0.266-0.012-0.313c-0.025-0.734-0.223-1.288-0.59-1.66
		c-0.367-0.373-0.871-0.559-1.512-0.559c-0.291,0-0.561,0.037-0.809,0.113c-0.248,0.075-0.471,0.176-0.672,0.301
		s-0.377,0.267-0.527,0.426c-0.15,0.158-0.283,0.322-0.398,0.492c-0.115,0.169-0.197,0.334-0.25,0.496
		c-0.053,0.161-0.078,0.307-0.078,0.438V77.82z"/>
	<path fill="#6E6F71" d="M153.77,71.195c-0.219-0.266-0.514-0.467-0.883-0.602c-0.369-0.136-0.783-0.203-1.242-0.203
		c-0.479,0-0.906,0.091-1.281,0.273c-0.375,0.182-0.693,0.43-0.957,0.742s-0.463,0.678-0.602,1.098
		c-0.139,0.419-0.207,0.865-0.207,1.34c0,0.474,0.059,0.918,0.176,1.332s0.299,0.773,0.547,1.078s0.563,0.544,0.945,0.719
		c0.383,0.174,0.84,0.262,1.371,0.262c0.969,0,1.756-0.261,2.359-0.781l0.234,0.758c-0.344,0.281-0.744,0.482-1.203,0.605
		c-0.459,0.122-0.963,0.184-1.516,0.184c-0.65,0-1.221-0.107-1.711-0.32c-0.49-0.214-0.898-0.506-1.227-0.875
		c-0.328-0.37-0.574-0.804-0.738-1.301c-0.164-0.498-0.246-1.027-0.246-1.59c0-0.589,0.088-1.144,0.266-1.664
		c0.178-0.521,0.434-0.977,0.77-1.367s0.75-0.701,1.242-0.93c0.492-0.229,1.057-0.344,1.691-0.344c0.609,0,1.135,0.087,1.574,0.262
		c0.439,0.174,0.791,0.418,1.051,0.73L153.77,71.195z"/>
	<path fill="#6E6F71" d="M162.707,76.242l0.281,0.75c-0.391,0.359-0.846,0.617-1.363,0.773S160.521,78,159.871,78
		c-0.619,0-1.174-0.104-1.66-0.309c-0.486-0.206-0.898-0.492-1.234-0.859s-0.592-0.805-0.77-1.313s-0.266-1.064-0.266-1.668
		c0-0.578,0.088-1.125,0.266-1.641s0.432-0.967,0.766-1.352c0.334-0.386,0.74-0.69,1.223-0.914c0.482-0.225,1.027-0.336,1.637-0.336
		c0.604,0,1.129,0.102,1.574,0.305s0.813,0.485,1.102,0.848c0.289,0.361,0.504,0.795,0.645,1.301
		c0.141,0.505,0.211,1.063,0.211,1.672c0,0.041-0.002,0.087-0.004,0.137c-0.002,0.049-0.004,0.087-0.004,0.113h-6.391v0.148
		c0,0.463,0.068,0.885,0.207,1.266c0.139,0.38,0.338,0.705,0.598,0.977c0.26,0.271,0.576,0.481,0.945,0.633
		c0.369,0.15,0.789,0.227,1.258,0.227c0.584,0,1.107-0.086,1.57-0.258S162.395,76.56,162.707,76.242z M156.98,73.188h5.367v-0.016
		v0.055c-0.016-0.422-0.074-0.807-0.176-1.152c-0.102-0.347-0.254-0.645-0.457-0.895s-0.463-0.444-0.777-0.582
		c-0.314-0.139-0.693-0.207-1.137-0.207c-0.432,0-0.814,0.074-1.148,0.223s-0.617,0.35-0.852,0.605
		c-0.234,0.255-0.42,0.552-0.559,0.891C157.104,72.447,157.018,72.807,156.98,73.188z"/>
</g>
</svg>
